<svg xmlns="http://www.w3.org/2000/svg" version="1.1" xmlns:xlink="http://www.w3.org/1999/xlink" xmlns:svgjs="http://svgjs.com/svgjs" width="256" height="256"><svg xmlns="http://www.w3.org/2000/svg" width="256" height="256" viewBox="0 0 100 100"><rect width="100" height="100" rx="50"></rect><path fill="#fff" d="M87.09 36.12q-.13.6-.56.95-.44.35-.96.35-.78 0-1.26-.5t-.48-1.15q0-.65.13-1.28t.13-1.24q0-3.18-1.95-5.7-1.96-2.52-5.54-4.23-3.59-1.72-8.72-2.63-5.13-.91-11.43-.91-4.82 0-9.71.63-4.89.63-9.39 1.82-4.49 1.2-8.4 3-3.92 1.8-6.81 4.17-2.89 2.37-4.54 5.26-1.65 2.89-1.65 6.32 0 2.65 1.15 4.67 1.15 2.03 3.15 3.52 2 1.5 4.72 2.57 2.71 1.06 5.89 1.78 3.17.72 6.6 1.17 3.44.46 6.91.76l6.69.57q5 .43 8.96.91 3.95.48 6.95 1.22 5 1.26 7.39 3.61 2.39 2.34 2.39 6.25 0 3.78-2.09 6.65-2.08 2.87-5.69 4.83-3.61 1.95-8.43 2.95-4.83 1-10.34 1-6 0-10.54-.8-4.54-.81-7.61-1.79-3.06-.97-4.67-1.8-1.61-.82-1.74-.91-.78-.44-.78-1.39 0-.74.52-1.2.52-.45 1.13-.45.48 0 .87.26.04 0 1.5.76t4.35 1.67q2.89.91 7.14 1.65 4.26.74 9.91.74 5.61 0 9.91-.91t7.24-2.54q2.93-1.63 4.43-3.83 1.5-2.19 1.5-4.76 0-1.52-.55-2.63-.54-1.1-1.49-1.91-.96-.8-2.29-1.37-1.32-.56-2.89-.95-1.65-.44-3.54-.74-1.89-.31-3.89-.52-2-.22-4.02-.39-2.02-.18-3.97-.35l-6.7-.57q-7.9-.65-13.79-2.02-5.89-1.37-9.8-3.52-3.91-2.15-5.87-5.15-1.95-3-1.95-6.99 0-4.09 1.84-7.5 1.85-3.41 5.04-6.15 3.2-2.74 7.48-4.76 4.28-2.02 9.15-3.37 4.86-1.34 10.08-2.02 5.21-.67 10.25-.67 6.3 0 10.98.76 4.67.76 7.99 1.96 3.33 1.19 5.46 2.71t3.43 3q3.08 3.61 3.08 8.21 0 1.52-.3 2.92Z"></path></svg><style>@media (prefers-color-scheme: light) { :root { filter: none; } }
@media (prefers-color-scheme: dark) { :root { filter: invert(100%); } }
</style></svg>