<svg xmlns="http://www.w3.org/2000/svg" width="100" height="100" viewBox="0 0 100 100"><path d="M47.266 100.195H.203V.215h99.961v99.98H47.266m6.738-55.914c-2.05 0-4.102.012-6.152-.004-1.184-.007-1.848-.543-1.864-1.656-.043-3.32-.043-6.64 0-9.96.016-1.079.688-1.638 1.77-1.65 1.367-.015 2.734-.007 4.101-.003 1.477.008 2.047.578 2.059 2.074.008 1.32 0 2.645 0 3.961h11.27c0-2.355.234-4.684-.047-6.95-.657-5.265-3.801-8.175-9.09-8.394-4.156-.172-8.332-.16-12.489.02-4.933.21-8.351 3.164-8.707 8.074-.402 5.566-.492 11.2-.101 16.762.402 5.668 3.523 8.363 9.223 8.773 2.851.203 5.726.07 8.59.094 1.296.012 1.94.617 1.945 1.883.015 3.511.015 7.027 0 10.543-.004 1.234-.633 1.867-1.856 1.886-1.238.02-2.472.004-3.71.004-2.727 0-2.981-.258-2.981-3.023v-4.848H34.348c.191 3.25.113 6.492.629 9.637.707 4.281 3.488 6.89 7.816 7.183 4.758.32 9.574.399 14.328.079 5.125-.344 7.684-3.016 8.61-8.016.105-.574.21-1.16.207-1.742-.028-5.301.097-10.613-.176-15.903-.235-4.609-3.047-7.632-7.39-8.48-1.36-.266-2.782-.238-4.368-.344Zm0 0" style="stroke:none;fill-rule:nonzero;fill:#000;fill-opacity:1"/><path d="M54.102 44.281c1.488.11 2.91.078 4.27.344 4.343.848 7.155 3.871 7.394 8.48.27 5.29.144 10.602.171 15.903.004.582-.101 1.168-.207 1.742-.925 5-3.484 7.672-8.609 8.016-4.754.32-9.57.242-14.328-.079-4.328-.292-7.11-2.902-7.816-7.183-.516-3.145-.438-6.387-.63-9.637h11.618v4.848c0 2.765.254 3.023 2.98 3.023 1.239 0 2.473.016 3.711-.004 1.223-.02 1.852-.652 1.856-1.886.015-3.516.015-7.032 0-10.543-.004-1.266-.649-1.871-1.946-1.883-2.863-.024-5.738.11-8.59-.094-5.699-.41-8.82-3.105-9.222-8.773-.39-5.563-.3-11.196.101-16.762.352-4.91 3.774-7.863 8.708-8.074 4.156-.18 8.332-.192 12.488-.02 5.289.219 8.433 3.13 9.09 8.395.28 2.265.046 4.593.046 6.949H53.919c0-1.316.008-2.64 0-3.961-.012-1.496-.582-2.066-2.059-2.074-1.367-.004-2.734-.012-4.101.004-1.082.011-1.754.57-1.77 1.648-.043 3.32-.043 6.64 0 9.961.016 1.113.68 1.649 1.864 1.656 2.05.016 4.101.004 6.25.004Zm0 0" style="stroke:none;fill-rule:nonzero;fill:#fefefe;fill-opacity:1"/></svg>