<svg xmlns="http://www.w3.org/2000/svg" xml:space="preserve" viewBox="0 0 512 512"><path d="M242 513H1.03V1.092h511.816V513H242m34.5-286.27c-10.5-.001-21 .054-31.498-.025-6.064-.045-9.46-2.776-9.534-8.493a1973.23 1973.23 0 0 1-.005-50.991c.071-5.512 3.517-8.371 9.06-8.435 7-.081 14-.042 20.999-.017 7.562.026 10.484 2.959 10.53 10.607.041 6.768.009 13.536.009 20.29h57.695c0-12.059 1.201-23.985-.242-35.581-3.354-26.96-19.448-41.862-46.527-42.983-21.286-.881-42.67-.815-63.956.095-25.253 1.079-42.76 16.206-44.577 41.34-2.058 28.495-2.52 57.35-.509 85.825 2.049 29.01 18.038 42.815 47.222 44.91 14.595 1.048 29.313.371 43.976.496 6.64.056 9.944 3.154 9.966 9.623.062 17.998.062 35.997-.003 53.996-.023 6.32-3.24 9.546-9.508 9.648-6.33.104-12.665.024-18.998.024-13.967 0-15.264-1.315-15.264-15.47v-24.827H175.86c.975 16.641.574 33.238 3.223 49.332 3.612 21.935 17.854 35.287 40.01 36.778 24.373 1.64 49.017 2.048 73.37.414 26.24-1.76 39.346-15.44 44.076-41.042.544-2.941 1.073-5.947 1.059-8.92-.136-27.148.507-54.342-.889-81.429-1.216-23.604-15.606-39.075-37.849-43.415-6.97-1.36-14.233-1.21-22.362-1.75z"/><path fill="#FEFEFE" d="M276.999 226.73c7.629.54 14.893.39 21.862 1.75 22.243 4.34 36.633 19.811 37.849 43.415 1.396 27.087.753 54.28.889 81.428.014 2.974-.515 5.98-1.059 8.921-4.73 25.602-17.836 39.282-44.076 41.042-24.353 1.634-48.997 1.226-73.37-.414-22.156-1.49-36.398-14.843-40.01-36.778-2.65-16.094-2.248-32.69-3.223-49.332h59.475v24.828c0 14.154 1.297 15.469 15.264 15.469 6.333 0 12.667.08 18.998-.024 6.268-.102 9.485-3.328 9.508-9.648.065-17.999.065-35.998.003-53.996-.022-6.47-3.326-9.567-9.966-9.623-14.663-.125-29.381.552-43.976-.496-29.184-2.095-45.173-15.9-47.222-44.91-2.01-28.475-1.55-57.33.51-85.825 1.815-25.134 19.323-40.261 44.576-41.34 21.286-.91 42.67-.976 63.956-.095 27.08 1.121 43.173 16.022 46.527 42.983 1.443 11.596.242 23.522.242 35.58h-57.695c0-6.753.032-13.52-.009-20.289-.046-7.648-2.968-10.58-10.53-10.607-7-.025-14-.064-20.998.017-5.544.064-8.99 2.923-9.06 8.435a1973.23 1973.23 0 0 0 .004 50.991c.074 5.717 3.47 8.448 9.534 8.493 10.498.079 20.998.024 31.997.024z"/></svg>